# xmcd
#
# Track frame offsets:
#	150
#	14550
#	25517
#	38137
#	52873
#	68803
#	81140
#	93795
#	113520
#	123150
#
# Disc length: 1865 seconds
# Revision: 0
# Processed by: cddbd v1.5.2PL0 Copyright (c) Steve Scherf et al.
# Submitted via: dBpowerAMP V12.0
#
DISCID=6907470a
DTITLE=Dana Jordan - Dana Jordan Sings The Best Of A. R. Kessinger
DYEAR=2006
DGENRE=Country
TTITLE0=Fool Me Once Fool Me Twice
TTITLE1=White Line Fever Band
TTITLE2=He Sent Me You
TTITLE3=He Delivered Papers Door To Door
TTITLE4=Let Old Glory Wave
TTITLE5=Perfection
TTITLE6=Last Night I Saw You In My Dreams
TTITLE7=Heaven's Little Beauty Queen
TTITLE8=Everlasting Love
TTITLE9=He Loved Her More Than She Could Understand
EXTD=
EXTT0=
EXTT1=
EXTT2=
EXTT3=
EXTT4=
EXTT5=
EXTT6=
EXTT7=
EXTT8=
EXTT9=
PLAYORDER=
